<svg xmlns="http://www.w3.org/2000/svg" viewBox="0 0 24 24" fill="#0051ff" width="48" height="48">
  <path d="M22 12c0-5.523-4.477-10-10-10S2 6.477 2 12s4.477 10 10 10 10-4.477 10-10z" fill="#f0f4ff"/>
  <path d="M17 9.5a2.5 2.5 0 0 0-3.8-2.1L12 8l-1.2-1.6a2.5 2.5 0 0 0-3.8 2.1l-.3 1.5H5v3h14v-3h-1.7l-.3-1.5z" fill="#0051ff"/>
  <path d="M6 13h12v5a1 1 0 0 1-1 1H7a1 1 0 0 1-1-1v-5z" fill="#0051ff"/>
  <rect x="11" y="9" width="2" height="10" fill="#ffffff"/>
  <rect x="5" y="11" width="14" height="2" fill="#ffffff"/>
</svg>